<?xml version="1.0" encoding="utf-8"?>
<!-- Generator: Adobe Illustrator 18.0.0, SVG Export Plug-In . SVG Version: 6.00 Build 0)  -->
<!DOCTYPE svg PUBLIC "-//W3C//DTD SVG 1.1//EN" "http://www.w3.org/Graphics/SVG/1.1/DTD/svg11.dtd">
<svg version="1.1" id="Ebene_1" xmlns="http://www.w3.org/2000/svg" xmlns:xlink="http://www.w3.org/1999/xlink" x="0px" y="0px"
	 viewBox="0 0 137.5 37.8" enable-background="new 0 0 137.5 37.8" xml:space="preserve">
<g>
	<g>
		<path fill="#FFFFFF" d="M51.4,12.9c0,0.8-0.1,1.6-0.4,2.4c-0.3,0.8-0.6,1.5-1.1,2.1c-0.5,0.6-1,1.1-1.7,1.4
			c-0.6,0.4-1.4,0.5-2.1,0.5c-0.5,0-1-0.1-1.4-0.2c-0.4-0.1-0.8-0.3-1.1-0.5l-0.2,0.5h-2.9l2.9-12.8h3l-1,4.5c0.5-0.4,1-0.7,1.5-0.9
			c0.5-0.2,1-0.3,1.6-0.3c1,0,1.7,0.3,2.2,0.8C51.1,11.2,51.4,11.9,51.4,12.9z M48.2,13.5c0-0.5-0.1-0.9-0.3-1.2
			c-0.2-0.3-0.6-0.4-1.2-0.4c-0.3,0-0.6,0.1-0.9,0.2c-0.3,0.1-0.6,0.2-0.9,0.4l-1.1,4.6c0.2,0.1,0.4,0.1,0.6,0.2
			c0.2,0,0.5,0.1,0.7,0.1c0.9,0,1.6-0.4,2.2-1.1C48,15.5,48.2,14.6,48.2,13.5z"/>
		<path fill="#FFFFFF" d="M58.1,6.4l-3,12.8h-3l3-12.8H58.1z"/>
		<path fill="#FFFFFF" d="M69.3,10l-2.1,9.2h-3l0.2-1c-0.3,0.2-0.6,0.4-0.9,0.5c-0.3,0.2-0.5,0.3-0.8,0.4c-0.3,0.1-0.6,0.2-0.9,0.3
			c-0.3,0-0.5,0.1-0.8,0.1c-0.8,0-1.4-0.2-1.9-0.6s-0.7-1-0.7-1.7c0-0.2,0-0.4,0-0.6c0-0.2,0.1-0.4,0.1-0.6l1.4-6h3l-1.1,4.6
			c-0.1,0.3-0.1,0.7-0.2,0.9c0,0.3-0.1,0.5-0.1,0.6c0,0.4,0.1,0.6,0.3,0.8s0.5,0.2,1,0.2c0.2,0,0.5-0.1,0.8-0.2
			c0.3-0.1,0.7-0.3,1-0.5l1.5-6.5H69.3z"/>
		<path fill="#FFFFFF" d="M75.1,19.5c-1.6,0-2.8-0.3-3.6-1c-0.9-0.7-1.3-1.7-1.3-2.9c0-0.8,0.1-1.6,0.4-2.3c0.3-0.7,0.7-1.3,1.2-1.8
			c0.5-0.5,1.1-0.9,1.9-1.2c0.8-0.3,1.6-0.5,2.5-0.5c1.4,0,2.4,0.3,3.1,0.8c0.7,0.6,1,1.4,1,2.5c0,0.4,0,0.7-0.1,1.1
			c-0.1,0.4-0.2,0.7-0.3,1.1h-6.9c0,0,0,0.1,0,0.1s0,0.1,0,0.1c0,0.6,0.2,1.1,0.7,1.5c0.4,0.4,1.1,0.5,2.1,0.5
			c0.6,0,1.3-0.1,1.8-0.3c0.6-0.2,1.1-0.5,1.5-0.7h0.3L79,18.7c-0.6,0.3-1.2,0.4-1.8,0.6C76.5,19.4,75.8,19.5,75.1,19.5z M77.4,13.4
			c0-0.1,0-0.2,0-0.3c0-0.1,0-0.2,0-0.3c0-0.4-0.1-0.8-0.4-1c-0.3-0.2-0.7-0.3-1.2-0.3c-0.6,0-1.1,0.2-1.5,0.5
			c-0.4,0.3-0.7,0.8-0.9,1.4H77.4z"/>
		<path fill="#FFFFFF" d="M86.3,10h2.3l-0.4,1.9H86l-1.7,7.3h-3l1.7-7.3h-1.3l0.4-1.9h1.3l0.1-0.2c0.2-1.1,0.7-2,1.4-2.5
			c0.7-0.6,1.7-0.9,3-0.9c0.5,0,0.9,0,1.3,0s0.7,0.1,0.9,0.1l-0.5,2.1h-0.2c-0.1,0-0.3-0.1-0.5-0.1c-0.2,0-0.4-0.1-0.6-0.1
			c-0.5,0-0.9,0.1-1.2,0.3C86.7,8.9,86.5,9.3,86.3,10L86.3,10z"/>
		<path fill="#FFFFFF" d="M98.8,13.4c0,0.9-0.1,1.7-0.4,2.4c-0.3,0.8-0.7,1.4-1.2,1.9c-0.5,0.6-1.2,1-1.9,1.3
			c-0.7,0.3-1.6,0.5-2.5,0.5c-1.4,0-2.4-0.3-3.2-1c-0.7-0.7-1.1-1.6-1.1-2.7c0-0.8,0.1-1.6,0.4-2.3s0.7-1.4,1.2-2
			c0.5-0.6,1.2-1,1.9-1.3c0.8-0.3,1.6-0.5,2.5-0.5c1.4,0,2.4,0.3,3.2,1C98.4,11.3,98.8,12.2,98.8,13.4z M95,16.4
			c0.3-0.4,0.4-0.8,0.6-1.3s0.2-1,0.2-1.7c0-0.6-0.1-1-0.4-1.3s-0.6-0.5-1.2-0.5c-0.4,0-0.8,0.1-1.1,0.3c-0.3,0.2-0.6,0.5-0.8,0.9
			c-0.2,0.3-0.4,0.8-0.5,1.3c-0.1,0.5-0.2,1-0.2,1.6c0,0.6,0.1,1.1,0.4,1.3c0.3,0.3,0.7,0.4,1.1,0.4c0.4,0,0.7-0.1,1-0.3
			S94.7,16.7,95,16.4z"/>
		<path fill="#FFFFFF" d="M107.9,12.8h-0.3c-0.1,0-0.3-0.1-0.6-0.1c-0.2,0-0.5,0-0.7,0c-0.4,0-0.8,0-1.1,0.1s-0.7,0.1-1.1,0.3
			l-1.4,6.2h-3l2.1-9.2h3l-0.3,1.4c0.6-0.4,1.1-0.7,1.7-1c0.6-0.3,1.1-0.4,1.7-0.4c0.1,0,0.2,0,0.3,0c0.1,0,0.2,0,0.3,0L107.9,12.8z
			"/>
		<path fill="#FFFFFF" d="M112.8,19.5c-0.6,0-1.2-0.1-1.8-0.2c-0.5-0.2-1-0.4-1.4-0.7c-0.4-0.3-0.7-0.7-0.9-1.2
			c-0.2-0.5-0.3-1.1-0.3-1.7c0-0.8,0.2-1.6,0.5-2.3c0.3-0.7,0.8-1.3,1.3-1.9c0.6-0.5,1.2-0.9,2-1.2s1.7-0.5,2.6-0.5
			c0.6,0,1.1,0.1,1.7,0.2c0.6,0.1,1.1,0.3,1.5,0.5l-0.6,2.5H117c-0.3-0.4-0.7-0.7-1.1-0.9s-0.9-0.3-1.4-0.3c-0.9,0-1.7,0.3-2.2,1
			s-0.8,1.5-0.8,2.5c0,0.7,0.2,1.2,0.5,1.5s0.9,0.5,1.6,0.5c0.6,0,1.1-0.1,1.6-0.3c0.5-0.2,0.9-0.5,1.2-0.8h0.4l-0.6,2.5
			c-0.6,0.3-1.1,0.4-1.6,0.5C114.1,19.4,113.5,19.5,112.8,19.5z"/>
		<path fill="#FFFFFF" d="M123.1,19.5c-1.6,0-2.8-0.3-3.6-1c-0.9-0.7-1.3-1.7-1.3-2.9c0-0.8,0.1-1.6,0.4-2.3
			c0.3-0.7,0.7-1.3,1.2-1.8c0.5-0.5,1.1-0.9,1.9-1.2c0.8-0.3,1.6-0.5,2.5-0.5c1.4,0,2.4,0.3,3.1,0.8c0.7,0.6,1,1.4,1,2.5
			c0,0.4,0,0.7-0.1,1.1c-0.1,0.4-0.2,0.7-0.3,1.1h-6.9c0,0,0,0.1,0,0.1s0,0.1,0,0.1c0,0.6,0.2,1.1,0.7,1.5c0.4,0.4,1.1,0.5,2.1,0.5
			c0.6,0,1.3-0.1,1.8-0.3c0.6-0.2,1.1-0.5,1.5-0.7h0.3l-0.6,2.4c-0.6,0.3-1.2,0.4-1.8,0.6S123.8,19.5,123.1,19.5z M125.4,13.4
			c0-0.1,0-0.2,0-0.3c0-0.1,0-0.2,0-0.3c0-0.4-0.1-0.8-0.4-1s-0.7-0.3-1.2-0.3c-0.6,0-1.1,0.2-1.5,0.5c-0.4,0.3-0.7,0.8-0.9,1.4
			H125.4z"/>
	</g>
	<g>
		<path fill="#FFFFFF" d="M40.9,31.4h-2.6l0.1-0.6h0.8l1.2-5.2h-0.8l0.1-0.6h2.6l-0.1,0.6h-0.8l-1.2,5.2h0.8L40.9,31.4z"/>
		<path fill="#FFFFFF" d="M47.6,27.6c0,0.1,0,0.2,0,0.3c0,0.1,0,0.2-0.1,0.3l-0.7,3.1H46l0.6-2.8c0-0.2,0.1-0.3,0.1-0.4s0-0.2,0-0.3
			c0-0.2-0.1-0.4-0.2-0.5c-0.1-0.1-0.3-0.2-0.7-0.2c-0.2,0-0.5,0.1-0.7,0.2c-0.3,0.1-0.5,0.3-0.8,0.4l-0.8,3.6h-0.8l1.1-4.8h0.8
			L44.6,27c0.3-0.2,0.6-0.4,0.9-0.5c0.3-0.1,0.5-0.2,0.8-0.2c0.4,0,0.8,0.1,1,0.3C47.5,26.9,47.6,27.2,47.6,27.6z"/>
		<path fill="#FFFFFF" d="M52.4,26.5l-0.1,0.7h-1.7l-0.5,2.2c0,0.1-0.1,0.2-0.1,0.4c0,0.1,0,0.3,0,0.3c0,0.2,0.1,0.4,0.2,0.5
			c0.1,0.1,0.3,0.2,0.6,0.2c0.1,0,0.3,0,0.4-0.1c0.2,0,0.3-0.1,0.3-0.1h0l-0.2,0.7c-0.2,0-0.3,0.1-0.5,0.1c-0.2,0-0.3,0-0.5,0
			c-0.4,0-0.7-0.1-0.9-0.3c-0.2-0.2-0.3-0.5-0.3-0.8c0-0.1,0-0.2,0-0.3c0-0.1,0-0.2,0.1-0.3l0.6-2.6h-0.6l0.1-0.7h0.6l0.3-1.4h0.8
			l-0.3,1.4H52.4z"/>
		<path fill="#FFFFFF" d="M55,31.5c-0.7,0-1.2-0.2-1.6-0.5c-0.4-0.3-0.6-0.8-0.6-1.4c0-0.9,0.3-1.7,0.8-2.3c0.6-0.6,1.3-1,2.1-1
			c0.5,0,1,0.1,1.3,0.4s0.4,0.7,0.4,1.2c0,0.1,0,0.2,0,0.4c0,0.2-0.1,0.4-0.1,0.7h-3.6c0,0.1,0,0.2,0,0.2s0,0.2,0,0.2
			c0,0.4,0.1,0.7,0.4,1c0.2,0.2,0.6,0.3,1.1,0.3c0.3,0,0.6-0.1,1-0.2c0.3-0.1,0.6-0.3,0.8-0.4h0l-0.2,0.9c-0.1,0.1-0.3,0.1-0.4,0.1
			c-0.1,0-0.3,0.1-0.4,0.1c-0.2,0-0.3,0.1-0.5,0.1S55.2,31.5,55,31.5z M56.6,28.4c0-0.1,0-0.2,0-0.2c0-0.1,0-0.1,0-0.2
			c0-0.3-0.1-0.6-0.3-0.7c-0.2-0.2-0.4-0.3-0.8-0.3c-0.4,0-0.8,0.1-1.1,0.4s-0.5,0.6-0.6,1H56.6z"/>
		<path fill="#FFFFFF" d="M62.3,27.4L62.3,27.4c-0.2,0-0.3,0-0.4-0.1c-0.1,0-0.2,0-0.4,0c-0.3,0-0.5,0.1-0.8,0.2
			c-0.3,0.1-0.5,0.3-0.8,0.4l-0.8,3.4h-0.8l1.1-4.8h0.8l-0.2,0.7c0.4-0.3,0.7-0.5,1-0.6s0.5-0.2,0.8-0.2c0.1,0,0.2,0,0.3,0
			c0.1,0,0.2,0,0.3,0L62.3,27.4z"/>
		<path fill="#FFFFFF" d="M67.4,27.6c0,0.1,0,0.2,0,0.3c0,0.1,0,0.2-0.1,0.3l-0.7,3.1h-0.8l0.6-2.8c0-0.2,0.1-0.3,0.1-0.4
			s0-0.2,0-0.3c0-0.2-0.1-0.4-0.2-0.5c-0.1-0.1-0.3-0.2-0.7-0.2c-0.2,0-0.5,0.1-0.7,0.2c-0.3,0.1-0.5,0.3-0.8,0.4l-0.8,3.6h-0.8
			l1.1-4.8h0.8L64.4,27c0.3-0.2,0.6-0.4,0.9-0.5c0.3-0.1,0.5-0.2,0.8-0.2c0.4,0,0.8,0.1,1,0.3C67.3,26.9,67.4,27.2,67.4,27.6z"/>
		<path fill="#FFFFFF" d="M70.9,31.5c-0.7,0-1.2-0.2-1.6-0.5c-0.4-0.3-0.6-0.8-0.6-1.4c0-0.9,0.3-1.7,0.8-2.3c0.6-0.6,1.3-1,2.1-1
			c0.5,0,1,0.1,1.3,0.4s0.4,0.7,0.4,1.2c0,0.1,0,0.2,0,0.4c0,0.2-0.1,0.4-0.1,0.7h-3.6c0,0.1,0,0.2,0,0.2s0,0.2,0,0.2
			c0,0.4,0.1,0.7,0.4,1c0.2,0.2,0.6,0.3,1.1,0.3c0.3,0,0.6-0.1,1-0.2c0.3-0.1,0.6-0.3,0.8-0.4h0l-0.2,0.9c-0.1,0.1-0.3,0.1-0.4,0.1
			c-0.1,0-0.3,0.1-0.4,0.1c-0.2,0-0.3,0.1-0.5,0.1S71.1,31.5,70.9,31.5z M72.5,28.4c0-0.1,0-0.2,0-0.2c0-0.1,0-0.1,0-0.2
			c0-0.3-0.1-0.6-0.3-0.7c-0.2-0.2-0.4-0.3-0.8-0.3c-0.4,0-0.8,0.1-1.1,0.4s-0.5,0.6-0.6,1H72.5z"/>
		<path fill="#FFFFFF" d="M77.9,26.5l-0.1,0.7h-1.7l-0.5,2.2c0,0.1-0.1,0.2-0.1,0.4c0,0.1,0,0.3,0,0.3c0,0.2,0.1,0.4,0.2,0.5
			c0.1,0.1,0.3,0.2,0.6,0.2c0.1,0,0.3,0,0.4-0.1c0.2,0,0.3-0.1,0.3-0.1h0l-0.2,0.7c-0.2,0-0.3,0.1-0.5,0.1c-0.2,0-0.3,0-0.5,0
			c-0.4,0-0.7-0.1-0.9-0.3c-0.2-0.2-0.3-0.5-0.3-0.8c0-0.1,0-0.2,0-0.3c0-0.1,0-0.2,0.1-0.3l0.6-2.6h-0.6l0.1-0.7h0.6l0.3-1.4h0.8
			l-0.3,1.4H77.9z"/>
		<path fill="#FFFFFF" d="M84,31.5c-0.4,0-0.8,0-1.2-0.1c-0.4-0.1-0.8-0.2-1.1-0.4l0.2-1H82c0.3,0.3,0.6,0.5,1,0.6s0.8,0.2,1.2,0.2
			c0.6,0,1.1-0.1,1.4-0.4c0.3-0.2,0.5-0.6,0.5-0.9c0-0.2-0.1-0.4-0.2-0.5s-0.3-0.2-0.5-0.3c-0.2-0.1-0.4-0.1-0.7-0.2
			c-0.3,0-0.5-0.1-0.7-0.2c-0.5-0.1-0.8-0.3-1.1-0.5c-0.2-0.2-0.4-0.6-0.4-0.9c0-0.6,0.3-1.1,0.8-1.5c0.5-0.4,1.2-0.6,2-0.6
			c0.5,0,0.9,0,1.2,0.1s0.7,0.2,1,0.3l-0.2,0.9h-0.1c-0.2-0.2-0.5-0.4-0.9-0.5s-0.8-0.2-1.2-0.2c-0.5,0-0.9,0.1-1.3,0.3
			c-0.3,0.2-0.5,0.5-0.5,0.9c0,0.2,0.1,0.4,0.2,0.5c0.1,0.1,0.3,0.3,0.6,0.3c0.2,0,0.4,0.1,0.7,0.2s0.6,0.1,0.8,0.2
			c0.4,0.1,0.7,0.3,0.9,0.5c0.2,0.2,0.3,0.5,0.3,0.8c0,0.3-0.1,0.6-0.2,0.8c-0.1,0.3-0.3,0.5-0.6,0.7c-0.3,0.2-0.6,0.4-0.9,0.5
			C84.9,31.4,84.5,31.5,84,31.5z"/>
		<path fill="#FFFFFF" d="M93,28.2c0,0.4-0.1,0.9-0.2,1.2s-0.3,0.7-0.6,1c-0.3,0.3-0.5,0.5-0.9,0.7c-0.3,0.2-0.7,0.3-1.2,0.3
			c-0.6,0-1-0.2-1.3-0.5c-0.3-0.3-0.5-0.8-0.5-1.4c0-0.4,0.1-0.8,0.2-1.2c0.1-0.4,0.3-0.7,0.6-1.1c0.2-0.3,0.5-0.5,0.9-0.7
			c0.3-0.2,0.7-0.3,1.1-0.3c0.6,0,1,0.2,1.3,0.5C92.8,27.2,93,27.6,93,28.2z M91.6,30c0.2-0.2,0.3-0.5,0.4-0.8s0.1-0.6,0.1-1
			c0-0.4-0.1-0.7-0.3-0.9S91.3,27,91,27c-0.3,0-0.5,0.1-0.8,0.2c-0.2,0.1-0.4,0.3-0.6,0.6c-0.2,0.2-0.3,0.5-0.4,0.8
			c-0.1,0.3-0.1,0.6-0.1,1c0,0.4,0.1,0.7,0.3,0.9s0.5,0.3,0.8,0.3c0.3,0,0.5-0.1,0.8-0.2C91.3,30.5,91.5,30.3,91.6,30z"/>
		<path fill="#FFFFFF" d="M96.4,24.6l-1.6,6.8H94l1.6-6.8H96.4z"/>
		<path fill="#FFFFFF" d="M102,26.5l-1.1,4.8H100l0.1-0.5c-0.3,0.2-0.6,0.4-0.9,0.5c-0.3,0.1-0.6,0.2-0.8,0.2c-0.4,0-0.7-0.1-1-0.3
			c-0.2-0.2-0.4-0.5-0.4-0.9c0-0.1,0-0.2,0-0.3s0-0.2,0.1-0.3l0.7-3.1h0.8l-0.6,2.8c0,0.1-0.1,0.2-0.1,0.4c0,0.1,0,0.3,0,0.3
			c0,0.2,0.1,0.4,0.2,0.6c0.1,0.1,0.3,0.2,0.6,0.2c0.2,0,0.5-0.1,0.7-0.2c0.3-0.1,0.5-0.3,0.8-0.4l0.8-3.6H102z"/>
		<path fill="#FFFFFF" d="M106.5,26.5l-0.1,0.7h-1.7l-0.5,2.2c0,0.1-0.1,0.2-0.1,0.4s0,0.3,0,0.3c0,0.2,0.1,0.4,0.2,0.5
			c0.1,0.1,0.3,0.2,0.6,0.2c0.1,0,0.3,0,0.4-0.1c0.2,0,0.3-0.1,0.3-0.1h0l-0.2,0.7c-0.2,0-0.3,0.1-0.5,0.1s-0.3,0-0.5,0
			c-0.4,0-0.7-0.1-0.9-0.3c-0.2-0.2-0.3-0.5-0.3-0.8c0-0.1,0-0.2,0-0.3c0-0.1,0-0.2,0.1-0.3l0.6-2.6h-0.6l0.1-0.7h0.6l0.3-1.4h0.8
			l-0.3,1.4H106.5z"/>
		<path fill="#FFFFFF" d="M108.7,26.5l-1.1,4.8h-0.8l1.1-4.8H108.7z M109.1,24.8l-0.2,0.8H108l0.2-0.8H109.1z"/>
		<path fill="#FFFFFF" d="M114.4,28.2c0,0.4-0.1,0.9-0.2,1.2s-0.3,0.7-0.6,1c-0.3,0.3-0.5,0.5-0.9,0.7c-0.3,0.2-0.7,0.3-1.2,0.3
			c-0.6,0-1-0.2-1.3-0.5c-0.3-0.3-0.5-0.8-0.5-1.4c0-0.4,0.1-0.8,0.2-1.2s0.3-0.7,0.6-1.1c0.2-0.3,0.5-0.5,0.9-0.7
			c0.3-0.2,0.7-0.3,1.1-0.3c0.6,0,1,0.2,1.3,0.5S114.4,27.6,114.4,28.2z M113,30c0.2-0.2,0.3-0.5,0.4-0.8s0.1-0.6,0.1-1
			c0-0.4-0.1-0.7-0.3-0.9s-0.5-0.3-0.8-0.3c-0.3,0-0.5,0.1-0.8,0.2c-0.2,0.1-0.4,0.3-0.6,0.6c-0.2,0.2-0.3,0.5-0.4,0.8
			s-0.1,0.6-0.1,1c0,0.4,0.1,0.7,0.3,0.9s0.5,0.3,0.8,0.3c0.3,0,0.5-0.1,0.8-0.2C112.7,30.5,112.9,30.3,113,30z"/>
		<path fill="#FFFFFF" d="M120.2,27.6c0,0.1,0,0.2,0,0.3c0,0.1,0,0.2-0.1,0.3l-0.7,3.1h-0.8l0.6-2.8c0-0.2,0.1-0.3,0.1-0.4
			s0-0.2,0-0.3c0-0.2-0.1-0.4-0.2-0.5c-0.1-0.1-0.3-0.2-0.7-0.2c-0.2,0-0.5,0.1-0.7,0.2c-0.3,0.1-0.5,0.3-0.8,0.4l-0.8,3.6h-0.8
			l1.1-4.8h0.8l-0.1,0.5c0.3-0.2,0.6-0.4,0.9-0.5c0.3-0.1,0.5-0.2,0.8-0.2c0.4,0,0.8,0.1,1,0.3C120.1,26.9,120.2,27.2,120.2,27.6z"
			/>
		<path fill="#FFFFFF" d="M122.9,31.5c-0.4,0-0.7,0-1-0.1c-0.3-0.1-0.5-0.2-0.7-0.3l0.2-0.9h0c0.1,0.1,0.1,0.1,0.2,0.2
			c0.1,0.1,0.2,0.1,0.4,0.2c0.1,0.1,0.3,0.1,0.5,0.2c0.2,0,0.4,0.1,0.6,0.1c0.4,0,0.7-0.1,1-0.2c0.2-0.2,0.3-0.4,0.3-0.7
			c0-0.2-0.1-0.3-0.2-0.4c-0.1-0.1-0.3-0.1-0.5-0.2c-0.1,0-0.2-0.1-0.4-0.1c-0.2,0-0.3-0.1-0.5-0.1c-0.3-0.1-0.6-0.2-0.8-0.4
			s-0.2-0.4-0.2-0.7c0-0.2,0-0.4,0.1-0.6c0.1-0.2,0.2-0.4,0.4-0.5c0.2-0.2,0.4-0.3,0.7-0.4s0.6-0.1,1-0.1c0.3,0,0.6,0,0.9,0.1
			s0.5,0.2,0.7,0.3l-0.2,0.8h0c0,0-0.1-0.1-0.2-0.2c-0.1-0.1-0.2-0.1-0.4-0.2c-0.1-0.1-0.3-0.1-0.4-0.1c-0.2,0-0.3-0.1-0.5-0.1
			c-0.4,0-0.7,0.1-0.9,0.2c-0.2,0.2-0.3,0.4-0.3,0.6c0,0.1,0.1,0.3,0.2,0.4c0.1,0.1,0.3,0.2,0.5,0.2c0.1,0,0.3,0.1,0.4,0.1
			c0.2,0,0.3,0.1,0.4,0.1c0.3,0.1,0.6,0.2,0.8,0.4c0.2,0.2,0.3,0.4,0.3,0.7c0,0.2-0.1,0.4-0.2,0.7c-0.1,0.2-0.3,0.4-0.5,0.6
			c-0.2,0.2-0.5,0.3-0.7,0.4C123.6,31.4,123.3,31.5,122.9,31.5z"/>
	</g>
	<g>
		<path fill="#FFFFFF" d="M16.2,2.2c-2.6,0-5.1,0.6-7.4,1.7L7,11.4c1.2-0.8,2.4-1.5,3.5-2c1.1-0.5,2.3-0.8,3.7-0.8
			c2.2,0,3.8,0.7,5,2c1.1,1.3,1.7,3.1,1.7,5.4c0,1.9-0.3,3.8-0.9,5.6c-0.6,1.8-1.5,3.4-2.6,4.7c-1.1,1.4-2.4,2.5-3.9,3.3
			c-1.5,0.8-3.1,1.2-4.9,1.2c-1.2,0-2.2-0.1-3.2-0.4c-0.9-0.2-1.8-0.6-2.5-1.1l0,0.1c3.1,4,7.9,6.6,13.3,6.6
			c9.3,0,16.9-7.6,16.9-16.9C33.1,9.8,25.5,2.2,16.2,2.2z"/>
		<path fill="#FFFFFF" d="M5.2,25.9c0.5,0.1,1,0.2,1.7,0.2c2.1,0,3.8-0.8,5-2.5c1.2-1.7,1.8-3.8,1.8-6.4c0-1.2-0.3-2.1-0.8-2.7
			c-0.5-0.6-1.4-0.9-2.7-0.9c-0.7,0-1.3,0.1-2,0.3c-0.6,0.2-1.3,0.5-2,0.9L3.8,25.5C4.2,25.7,4.7,25.8,5.2,25.9z"/>
	</g>
</g>
</svg>
